:SAMPLES-PER-SECOND 30
:FULLY-SPECIFIED
:DEGREES
708
root  11.1555 39.0785 12.3044 38.9375 85.8682 43.9784
RightUpLeg  -11.2851 -18.3824 -11.4273
RightLeg  29.1767 -3.85307 -2.57163
RightFoot  -7.76749 -0.175899 3.94566
RightToes  0.000481921 0.542163 -0.142578
Spine  24.0108 -0.65761 4.34388
Spine1  9.22578 0.461122 -0.465943
HEad  1.37521 2.60511 -1.33803
LeftShoulder1  5.83969 -14.4076 -26.4449
LeftArm  -12.0933 -45.8728 -47.8923
LeftForeArm  178.393 -66.5319 -157.399
LeftHand  -0.25398 0.0180481 5.50724
RightShoulder  4.83209 12.3614 24.2947
RightArm  -1.93597 40.3005 59.1013
RightForeArm  164.695 65.6058 157.804
RightHand  -0.859246 2.19227 -13.3234
LeftUpLeg  -8.41867 21.2865 6.94221
LeftLeg  27.1589 4.97003 3.09442
LeftFoot  -6.72866 0.318616 -6.89761
LeftToes  1.06245e-005 4.65869e-005 -8.65517e-006
709
root  10.9829 38.7738 12.6618 110.755 87.3015 116.506
RightUpLeg  -10.8793 -21.4242 -11.3969
RightLeg  32.3676 -5.43136 -3.95281
RightFoot  -9.53347 -0.129167 4.08925
RightToes  0.000481921 0.542163 -0.142578
Spine  24.997 -0.929832 0.735773
Spine1  8.39457 -2.26479 5.93511
HEad  3.0264 1.64362 -0.945918
LeftShoulder1  4.77672 -13.455 -21.7699
LeftArm  -17.4388 -58.4301 -48.589
LeftForeArm  148.411 -79.6495 -120.735
LeftHand  -0.25398 0.0180481 5.50724
RightShoulder  4.95139 12.4699 24.8593
RightArm  -2.51784 38.0351 56.6195
RightForeArm  165.553 63.5931 159.697
RightHand  -0.754484 1.97535 -12.1465
LeftUpLeg  -10.463 18.0804 7.46143
LeftLeg  29.6591 2.98451 2.17993
LeftFoot  -7.1572 0.275574 -6.36875
LeftToes  1.06245e-005 4.65869e-005 -8.65517e-006
710
root  10.9529 38.6431 13.1629 169.553 81.9592 174.892
RightUpLeg  -10.5142 -25.1714 -10.9098
RightLeg  34.1064 -7.48766 -5.67343
RightFoot  -10.6699 -0.0981336 4.37525
RightToes  0.000481921 0.542163 -0.142578
Spine  25.3816 -1.43789 -2.81444
Spine1  6.56325 -5.01997 11.9493
HEad  4.88681 0.093001 -0.452325
LeftShoulder1  3.73599 -11.7254 -17.9336
LeftArm  -16.4924 -65.2967 -54.0478
LeftForeArm  102.646 -80.818 -59.3329
LeftHand  -0.25398 0.0180481 5.50724
RightShoulder  5.47194 12.7672 27.584
RightArm  -2.53666 32.1009 53.6413
RightForeArm  168.657 60.5214 162.341
RightHand  -0.451167 1.33116 -7.87084
LeftUpLeg  -12.8723 15.1817 7.76468
LeftLeg  30.0334 0.128726 0.436567
LeftFoot  -6.72537 0.271224 -5.74053
LeftToes  1.06245e-005 4.65869e-005 -8.65517e-006
711
root  11.0462 38.7308 13.6855 171.168 76.836 175.187
RightUpLeg  -10.6211 -28.0122 -10.2792
RightLeg  34.1322 -9.3396 -6.99997
RightFoot  -11.0195 -0.0882581 4.72819
RightToes  0.000481921 0.542163 -0.142578
Spine  25.269 -1.91313 -3.87296
Spine1  4.79038 -6.11425 14.1684
HEad  5.25723 -2.31358 -0.997621
LeftShoulder1  3.35141 -10.1226 -18.018
LeftArm  -10.0751 -63.4421 -60.5658
LeftForeArm  130.73 -81.6714 -80.4674
LeftHand  -0.25398 0.0180481 5.50724
RightShoulder  6.14667 13.2859 30.644
RightArm  -4.11076 25.4564 50.034
RightForeArm  174.695 57.2782 164.853
RightHand  -0.0862694 -3.07848 -2.18681
LeftUpLeg  -14.7555 13.329 7.47455
LeftLeg  28.2789 -2.35294 -1.02861
LeftFoot  -5.03926 0.339023 -5.59128
LeftToes  1.06245e-005 4.65869e-005 -8.65517e-006
712
root  11.1519 38.9373 14.1446 170.295 73.883 172.946
RightUpLeg  -10.9427 -29.5211 -10.1595
RightLeg  33.2711 -10.5077 -7.59175
RightFoot  -10.8625 -0.0945321 4.96386
RightToes  0.000481921 0.542163 -0.142578
Spine  24.8493 -1.70554 -1.65784
Spine1  4.26229 -4.69356 11.265
HEad  3.68735 -6.67432 -1.30845
LeftShoulder1  3.82497 -9.969 -21.9907
LeftArm  -2.64368 -54.1284 -63.6873
LeftForeArm  178.83 -77.677 -138.081
LeftHand  -0.25398 0.0180481 5.50724
RightShoulder  6.35442 13.3795 31.6956
RightArm  -9.5154 21.7616 44.4223
RightForeArm  -175.922 54.1754 167.234
RightHand  -0.190159 -7.21248 8.0908
LeftUpLeg  -15.3434 11.8894 6.5486
LeftLeg  25.1311 -3.44279 -1.43823
LeftFoot  -2.66817 0.472404 -6.00805
LeftToes  1.06245e-005 4.65869e-005 -8.65517e-006
713
root  11.1178 39.0749 14.5134 167.495 72.1818 169.458
RightUpLeg  -11.3626 -30.1892 -10.7917
RightLeg  33.1374 -11.1254 -7.97314
RightFoot  -10.6521 -0.102501 5.01614
RightToes  0.000481921 0.542163 -0.142578
Spine  25.1125 -0.883259 2.78141
Spine1  4.80881 -1.36066 4.49216
HEad  0.862819 -13.0775 0.758279
LeftShoulder1  4.81385 -11.2544 -26.4647
LeftArm  0.969678 -42.5038 -61.2651
LeftForeArm  -177.35 -70.7489 -154.344
LeftHand  -0.25398 0.0180481 5.50724
RightShoulder  5.48539 12.1531 28.998
RightArm  -19.2536 23.3097 36.7356
RightForeArm  -171.237 55.0947 167.657
RightHand  0.0570918 -5.05492 26.333
LeftUpLeg  -15.0147 9.97017 5.30465
LeftLeg  22.1457 -3.06331 -1.0494
LeftFoot  -0.749979 0.602173 -6.45122
LeftToes  1.06245e-005 4.65869e-005 -8.65517e-006
714
root  10.8468 39.0072 14.8088 163.3 71.2829 165.028
RightUpLeg  -12.8617 -29.7063 -11.8019
RightLeg  34.9659 -11.6206 -8.86808
RightFoot  -10.7949 -0.0968534 4.94096
RightToes  0.000481921 0.542163 -0.142578
Spine  26.839 -0.167119 7.86597
Spine1  5.00989 2.63837 -4.17166
HEad  -2.14814 -19.336 4.46414
LeftShoulder1  5.64137 -12.7674 -28.6122
LeftArm  2.38949 -33.2454 -57.0831
LeftForeArm  -176.481 -68.258 -157.234
LeftHand  -0.25398 0.0180481 5.50724
RightShoulder  3.68872 9.18016 22.766
RightArm  -31.9849 30.3141 27.8626
RightForeArm  169.332 67.8773 152.668
RightHand  1.75113 -0.705475 41.0366
LeftUpLeg  -15.0507 8.28348 3.74635
LeftLeg  20.8442 -1.94793 -0.490684
LeftFoot  0.0871173 0.653372 -6.53244
LeftToes  1.06245e-005 4.65869e-005 -8.65517e-006
